# Blender v2.79 (sub 0) OBJ File: 'untitled.blend'
# www.blender.org
mtllib untitled.mtl
o Cube
v 1.000000 -1.000000 -1.000000
v 1.000000 -1.000000 1.000000
v -1.000000 -1.000000 1.000000
v -1.000000 -1.000000 -1.000000
v 1.000000 1.000000 -0.999999
v 0.999999 1.000000 1.000001
v -1.000000 1.000000 1.000000
v -1.000000 1.000000 -1.000000
v 1.000000 -1.000000 0.923532
v -1.000000 -1.000000 0.923532
v 0.999999 1.000000 0.923533
v -1.000000 1.000000 0.923532
v 1.000000 -0.895119 -1.000000
v 1.000000 -0.895119 1.000000
v -1.000000 -0.895119 1.000000
v -1.000000 -0.895119 -1.000000
v -1.000000 -0.895119 0.923532
v 1.000000 -0.895119 0.923532
v -1.000000 -1.000000 -0.920118
v -1.000000 1.000000 -0.920118
v 1.000000 -1.000000 -0.920118
v 1.000000 1.000000 -0.920117
v 1.000000 -0.895119 -0.920118
v -1.000000 -0.895119 -0.920118
v 1.000000 0.927474 -0.999999
v 0.999999 0.927474 1.000001
v -1.000000 0.927474 1.000000
v -1.000000 0.927474 -1.000000
v -1.000000 0.927474 0.923532
v 0.999999 0.927474 0.923533
v 1.000000 0.927474 -0.920117
v -1.000000 0.927474 -0.920118
v -0.927820 -1.000000 -1.000000
v -0.927821 -1.000000 1.000000
v -0.927821 1.000000 -1.000000
v -0.927821 1.000000 1.000000
v -0.927821 1.000000 0.923532
v -0.927821 -1.000000 0.923532
v -0.927820 -0.895119 -1.000000
v -0.927821 -0.895119 1.000000
v -0.927820 -1.000000 -0.920118
v -0.927821 1.000000 -0.920118
v -0.927821 0.927474 -1.000000
v -0.927821 0.927474 1.000000
v 0.916367 1.000000 0.923532
v 0.916368 1.000000 -0.920117
v 0.916368 -1.000000 -1.000000
v 0.916368 -1.000000 1.000000
v 0.916368 1.000000 -0.999999
v 0.916367 1.000000 1.000001
v 0.916368 -1.000000 0.923532
v 0.916368 -0.895119 -1.000000
v 0.916368 -0.895119 1.000000
v 0.916368 -1.000000 -0.920118
v 0.916368 0.927474 -0.999999
v 0.916367 0.927474 1.000001
vn -1.0000 -0.0000 -0.0000
vn 1.0000 0.0000 0.0000
vn -0.0000 -0.0000 1.0000
vn 0.0000 0.0000 -1.0000
vn 0.0000 -1.0000 0.0000
vn 0.0000 1.0000 0.0000
usemtl Material.001
s off
f 17//1 29//1 32//1 24//1
f 23//2 31//2 30//2 18//2
f 53//3 56//3 44//3 40//3
f 55//4 52//4 39//4 43//4
f 54//5 51//5 38//5 41//5
f 46//6 42//6 37//6 45//6
usemtl Material.002
f 38//5 34//5 3//5 10//5
f 37//6 12//6 7//6 36//6
f 30//2 11//2 6//2 26//2
f 44//3 36//3 7//3 27//3
f 32//1 20//1 8//1 28//1
f 39//4 33//4 4//4 16//4
f 27//1 7//1 12//1 29//1
f 31//2 22//2 11//2 30//2
f 42//6 20//6 12//6 37//6
f 41//5 38//5 10//5 19//5
f 21//2 23//2 18//2 9//2
f 3//1 15//1 17//1 10//1
f 43//4 39//4 16//4 28//4
f 19//1 24//1 16//1 4//1
f 34//3 40//3 15//3 3//3
f 9//2 18//2 14//2 2//2
f 10//1 17//1 24//1 19//1
f 1//2 13//2 23//2 21//2
f 33//5 41//5 19//5 4//5
f 35//6 8//6 20//6 42//6
f 25//2 5//2 22//2 31//2
f 29//1 12//1 20//1 32//1
f 13//2 25//2 31//2 23//2
f 35//4 43//4 28//4 8//4
f 15//1 27//1 29//1 17//1
f 24//1 32//1 28//1 16//1
f 40//3 44//3 27//3 15//3
f 18//2 30//2 26//2 14//2
f 49//4 55//4 43//4 35//4
f 49//6 35//6 42//6 46//6
f 47//5 54//5 41//5 33//5
f 48//3 53//3 40//3 34//3
f 52//4 47//4 33//4 39//4
f 56//3 50//3 36//3 44//3
f 45//6 37//6 36//6 50//6
f 51//5 48//5 34//5 38//5
f 9//5 2//5 48//5 51//5
f 11//6 45//6 50//6 6//6
f 26//3 6//3 50//3 56//3
f 13//4 1//4 47//4 52//4
f 22//6 46//6 45//6 11//6
f 21//5 9//5 51//5 54//5
f 25//4 13//4 52//4 55//4
f 2//3 14//3 53//3 48//3
f 1//5 21//5 54//5 47//5
f 5//6 49//6 46//6 22//6
f 5//4 25//4 55//4 49//4
f 14//3 26//3 56//3 53//3
